<?xml version="1.0" encoding="UTF-8"?>
<svg id="Layer_1" data-name="Layer 1" xmlns="http://www.w3.org/2000/svg" viewBox="0 0 113.333 20">
  <path d="M48.048,13.322h4.303l-.606,2.159h-4.304l-1.198,4.352h-2.482l3.102-11.147h7.138l-.608,2.175h-4.658l-.687,2.461Z" fill="#fff"/>
  <path d="M55.951,15.598h2.684l.018-4.854-2.701,4.854ZM58.665,17.64h-3.831l-1.234,2.193h-2.682l6.526-11.147h3.391l.477,11.147h-2.633l-.015-2.193Z" fill="#fff"/>
  <path d="M67.046,12.184l-2.106,7.649h-2.43l3.102-11.147h3.02l1.647,8.084,2.251-8.084h2.413l-3.102,11.147h-3.054l-1.742-7.649Z" fill="#fff"/>
  <path d="M78.658,19.832h-2.497l2.494-8.971h-3.037l.607-2.175h8.573l-.607,2.175h-3.038l-2.494,8.971Z" fill="#fff"/>
  <path d="M86.327,15.598h2.683l.018-4.854-2.701,4.854ZM89.04,17.64h-3.831l-1.234,2.193h-2.683l6.528-11.147h3.391l.477,11.147h-2.633l-.014-2.193Z" fill="#fff"/>
  <path d="M92.841,19.263l.73-1.892c1.048.319,1.919.552,2.999.552,1.317,0,1.646-.251,1.913-1.221.074-.235.112-.436.126-.586.052-.502-.272-.636-1.603-.988-1.827-.469-2.452-1.12-2.321-2.426.036-.351.127-.753.258-1.205.74-2.477,1.464-2.98,4.52-2.98.861,0,2.259.184,3.23.436l-.647,2.058c-.972-.234-2.24-.384-2.998-.384-1.216,0-1.469.168-1.711,1.054-.059.252-.113.452-.128.603-.054.536.275.619,1.558.955,2.039.518,2.549,1.155,2.433,2.293-.035.351-.124.736-.254,1.188-.637,2.293-1.547,3.28-4.737,3.28-.928,0-2.533-.318-3.368-.737Z" fill="#fff"/>
  <path d="M106.654,19.832h-2.497l.882-3.214-1.274-7.933h2.514l.728,5.155,3.475-5.155h2.851l-5.796,7.933-.883,3.214Z" fill="#fff"/>
  <path d="M30.491,3.23h-10.825l.899-3.23h10.825l-.899,3.23Z" fill="#d20a0a"/>
  <path d="M23.156,8.685h5.817s.898-3.229.898-3.229h-10.825l-2.566,9.224h5.007l1.668-5.995Z" fill="#d20a0a"/>
  <path d="M35.432,11.341c-.132-.075-.213-.173-.246-.298-.009-.037-.013-.074-.011-.114.002-.035.007-.071.017-.107l1.961-7.048c.057-.206.156-.346.299-.424.143-.079.388-.12.739-.12h5.406L44.496,0h-7.581c-1.381,0-2.344.163-2.905.473-.561.31-.95.86-1.174,1.669l-2.798,10.049c-.043.149-.066.299-.074.44-.009.155.009.301.043.448.129.49.449.878.967,1.17.509.284,1.148.43,1.908.43h7.935l.898-3.229h-5.8c-.193,0-.356-.037-.485-.109Z" fill="#d20a0a" fill-rule="evenodd"/>
  <path d="M5.518,0l-3.392,12.192c-.043.149-.065.299-.073.44-.009.155.009.301.043.448.13.49.449.878.967,1.17.509.284,1.148.43,1.908.43h5.644c1.381-.001,2.344-.165,2.905-.474.561-.31.95-.861,1.174-1.669L18.182,0h-5.007l-3.035,10.905c-.057.206-.156.346-.299.424-.143.079-.388.12-.739.12h-.862c-.193,0-.356-.037-.485-.109-.132-.074-.213-.173-.246-.298-.009-.037-.013-.074-.011-.114.002-.034.007-.071.017-.107L10.525,0h-5.007Z" fill="#d20a0a" fill-rule="evenodd"/>
  <path d="M.62,17.606l-.62,2.226h39.376l.619-2.226H.62Z" fill="#d20a0a"/>
</svg>