<svg width="114" height="19.999999944" viewBox="0 0 114 19.999999944" fill="none"><path d="M48.2982 13.3217H52.601L51.9952 15.4803H47.6911L46.4933 19.8323H44.0112L47.1133 8.68562H54.2513L53.6434 10.8611H48.9855L48.2982 13.3217Z" fill="black"></path><path d="M56.2014 15.5982H58.8851L58.9027 10.7445L56.2014 15.5982ZM58.9148 17.6396H55.0836L53.8495 19.8323H51.1675L57.6936 8.68562H61.085L61.5623 19.8323H58.9294L58.9148 17.6396Z" fill="black"></path><path d="M67.2958 12.1837L65.1893 19.8325H62.7593L65.8612 8.68587H68.8814L70.5286 16.7694L72.78 8.68587H75.1934L72.0916 19.8325H69.0375L67.2958 12.1837Z" fill="black"></path><path d="M78.9084 19.8323H76.4111L78.9049 10.8611H75.8677L76.4748 8.68562H85.0477L84.4406 10.8611H81.4022L78.9084 19.8323Z" fill="black"></path><path d="M86.5769 15.5982H89.2601L89.2781 10.7445L86.5769 15.5982ZM89.2903 17.6396H85.459L84.2245 19.8323H81.5415L88.0691 8.68562H91.46L91.9373 19.8323H89.3044L89.2903 17.6396Z" fill="black"></path><path d="M93.0913 19.2634L93.8218 17.3717C94.87 17.6906 95.7411 17.9242 96.8204 17.9242C98.1374 17.9242 98.4663 17.6731 98.7338 16.703C98.8081 16.4681 98.8454 16.2673 98.8595 16.1165C98.9114 15.6144 98.5872 15.4805 97.2562 15.1288C95.4292 14.6602 94.8044 14.0086 94.9348 12.7025C94.971 12.3516 95.0621 11.9491 95.1929 11.4975C95.9329 9.02054 96.6573 8.51785 99.7125 8.51785C100.574 8.51785 101.972 8.70199 102.943 8.95367L102.296 11.0119C101.324 10.7782 100.056 10.6275 99.2976 10.6275C98.0812 10.6275 97.8283 10.795 97.5871 11.6814C97.5285 11.9333 97.4743 12.1332 97.4589 12.2841C97.4046 12.8196 97.7335 12.9033 99.0168 13.2386C101.056 13.757 101.566 14.3931 101.45 15.5314C101.415 15.8827 101.326 16.2673 101.196 16.7196C100.559 19.0124 99.649 20 96.4594 20C95.5313 20 93.9262 19.6819 93.0913 19.2634Z" fill="black"></path><path d="M106.904 19.8323H104.407L105.289 16.6186L104.015 8.68562H106.529L107.257 13.8406L110.732 8.68562H113.583L107.787 16.6186L106.904 19.8323Z" fill="black"></path><path d="M30.7409 3.22974H19.916L20.8145 8.2016e-05H31.6396L30.7409 3.22974Z" fill="#D20A0A"></path><path d="M23.4057 8.68506L29.2231 8.68522L30.1216 5.45556H19.2969L16.7305 14.6797H21.7379L23.4057 8.68506Z" fill="#D20A0A"></path><path fill-rule="evenodd" clip-rule="evenodd" d="M35.6822 11.3411C35.5505 11.2665 35.4691 11.168 35.4362 11.0432C35.4274 11.0059 35.423 10.9689 35.4253 10.9296C35.4271 10.8951 35.4326 10.8588 35.4426 10.8224L37.4038 3.77444C37.4608 3.56892 37.5598 3.42882 37.7024 3.3502C37.8451 3.27109 38.0899 3.22983 38.4414 3.22983H43.8475L44.7462 0.000169754H37.1657C35.7843 0.000169754 34.8216 0.163602 34.2605 0.473502C33.6996 0.783077 33.3109 1.33389 33.0866 2.14256L30.2891 12.192C30.2459 12.3414 30.2236 12.4906 30.2156 12.6317C30.2069 12.7867 30.2244 12.933 30.2588 13.0796C30.3882 13.5696 30.7078 13.9573 31.2255 14.2499C31.7348 14.5337 32.3738 14.6797 33.1335 14.6797H41.0688L41.9673 11.4502H36.1675C35.9743 11.4502 35.8118 11.4132 35.6822 11.3411Z" fill="#D20A0A"></path><path fill-rule="evenodd" clip-rule="evenodd" d="M5.76751 0.00015831L2.37549 12.192C2.33229 12.3414 2.31003 12.4906 2.30202 12.6317C2.29334 12.7868 2.31069 12.933 2.34505 13.0796C2.47465 13.5696 2.79423 13.9573 3.31182 14.2499C3.82122 14.5337 4.46022 14.6797 5.21982 14.6797L10.864 14.6784C12.2452 14.6784 13.2081 14.5151 13.7693 14.2052C14.3304 13.8955 14.7189 13.3447 14.9433 12.5363L18.432 0.00015831H13.4245L10.3899 10.9053C10.333 11.1109 10.234 11.251 10.0913 11.3298C9.94858 11.4086 9.70362 11.4502 9.35229 11.4502H8.49026C8.297 11.4502 8.13451 11.4132 8.00491 11.3409C7.87335 11.2665 7.79202 11.168 7.75896 11.0432C7.75029 11.0061 7.74571 10.9687 7.748 10.9294C7.74996 10.895 7.7552 10.8588 7.76535 10.8224L10.7749 0.00015831H5.76751Z" fill="#D20A0A"></path><path d="M0.869528 17.6065L0.25 19.8323H39.6257L40.245 17.6065H0.869528Z" fill="#D20A0A"></path></svg>